<svg xmlns="http://www.w3.org/2000/svg" viewBox="0 0 200 200" role="img" aria-label="EdTech owl focus">
<defs><linearGradient id="b" x1="0" y1="0" x2="1" y2="1"><stop stop-color="#78A7DB"/><stop offset="1" stop-color="#426B92"/></linearGradient><filter id="s" x="-30%" y="-30%" width="160%" height="160%"><feDropShadow dx="0" dy="8" stdDeviation="7" flood-color="#1b102b" flood-opacity=".24"/></filter></defs>
<g filter="url(#s)"><ellipse cx="100" cy="178" rx="55" ry="10" fill="#1d1231" opacity=".18"/><path d="M54 71 38 40c24 8 38 16 49 31M146 71l16-31c-24 8-38 16-49 31" fill="url(#b)"/><path d="M46 91c0-45 24-70 54-70s54 25 54 70v43c0 34-24 54-54 54s-54-20-54-54z" fill="url(#b)"/>
<ellipse cx="77" cy="92" rx="31" ry="34" fill="#FFF9F2"/><ellipse cx="123" cy="92" rx="31" ry="34" fill="#FFF9F2"/><circle cx="77" cy="96" r="18" fill="#fff" stroke="#F4C45C" stroke-width="5"/><circle cx="123" cy="96" r="18" fill="#fff" stroke="#F4C45C" stroke-width="5"/><circle cx="77" cy="98" r="8" fill="#17324A"/><circle cx="123" cy="98" r="8" fill="#17324A"/><circle cx="74" cy="94" r="2.5" fill="#fff"/><circle cx="120" cy="94" r="2.5" fill="#fff"/><path d="m100 107-8 8h16z" fill="#F09B36"/><path d="M77 45c11-7 22-9 33-5M123 45c-11-7-22-9-33-5" stroke="#17324A" stroke-width="6" stroke-linecap="round" opacity=".75"/><path d="M67 138c10 10 56 10 66 0" fill="none" stroke="#fff" stroke-width="3" opacity=".45"/><circle cx="140" cy="140" r="20" fill="#9B7CFF"/><path d="M140 126v28M126 140h28" stroke="#fff" stroke-width="4" stroke-linecap="round"/></g></svg>