<svg xmlns="http://www.w3.org/2000/svg" width="58" height="58" viewBox="0 0 72 72"><defs><filter id="s" x="-30%" y="-30%" width="160%" height="160%"><feDropShadow dx="0" dy="4" stdDeviation="2.5" flood-color="#120923" flood-opacity=".42"/></filter><linearGradient id="g" x1="0" y1="0" x2="1" y2="1"><stop stop-color="#C0A8FF"/><stop offset="1" stop-color="#6749B3"/></linearGradient></defs><g filter="url(#s)"><path d="M19 63c-5-9-8-16-7-25 0-3 2-5 5-5s5 2 5 5V16c0-4 2-7 6-7s6 3 6 7v12c1-4 7-4 9 0 2-4 8-3 9 1 3-3 9-1 9 4v13c0 9-7 17-16 17z" fill="#FFFDFB" stroke="#2B1748" stroke-width="3" stroke-linejoin="round"/><g transform="translate(36 3)"><path d="M6 8 2 2l10 4M25 8l5-6-10 4" fill="url(#g)"/><ellipse cx="16" cy="17" rx="14" ry="13" fill="url(#g)"/><circle cx="11" cy="16" r="5.4" fill="#FFF9F1"/><circle cx="21" cy="16" r="5.4" fill="#FFF9F1"/><circle cx="11" cy="17" r="2.3" fill="#20132E"/><circle cx="21" cy="17" r="2.3" fill="#20132E"/><path d="m16 20-3 3h6z" fill="#F4B448"/></g></g></svg>