<svg xmlns="http://www.w3.org/2000/svg" viewBox="0 0 512 512">
  <defs><linearGradient id="g" x1="0" y1="0" x2="1" y2="1"><stop stop-color="#436b8c"/><stop offset="1" stop-color="#739a87"/></linearGradient></defs>
  <rect width="512" height="512" rx="132" fill="#f4f7f2"/>
  <rect x="54" y="54" width="404" height="404" rx="118" fill="url(#g)"/>
  <path d="M145 166c70-38 144-38 222 0v202c-73-40-147-40-222 0z" fill="#fffdf8"/>
  <path d="M256 170v195M176 214c33-15 59-13 80 1M336 214c-33-15-59-13-80 1" fill="none" stroke="#436b8c" stroke-width="20" stroke-linecap="round"/>
  <path d="m363 116 10 31 31 10-31 10-10 31-10-31-31-10 31-10z" fill="#f0bc67"/>
</svg>
